<?xml version="1.0" encoding="UTF-8"?>
<svg id="Calque_1" xmlns="http://www.w3.org/2000/svg" version="1.1" viewBox="0 0 386.26 75.47">
  <!-- Generator: Adobe Illustrator 30.6.0, SVG Export Plug-In . SVG Version: 2.1.4 Build 109)  -->
  <defs>
    <style>
      .st0, .st1 {
        fill: #1e4897;
      }

      .st1, .st2 {
        opacity: .8;
      }

      .st3 {
        fill: #304587;
      }

      .st4, .st2 {
        fill: #a5195b;
      }
    </style>
  </defs>
  <rect class="st0" x="203.33" y="23.04" width="7.29" height="23.81" transform="translate(413.94 69.9) rotate(-180)"/>
  <rect class="st4" x="191.66" y="36.84" width="7.23" height="13.64" transform="translate(390.55 87.32) rotate(-180)"/>
  <rect class="st4" x="214.85" y="30.47" width="7.29" height="22.28" transform="translate(436.99 83.22) rotate(-180)"/>
  <g>
    <g>
      <g>
        <path class="st2" d="M94.06,56.05c0-2.05,1.03-3.79,3.08-5.22,1.11-.71,2.25-1.07,3.44-1.07,1.66,0,3.24.75,4.74,2.25,2.37,2.45,4.84,4.27,7.41,5.45,2.57,1.19,5.67,1.78,9.31,1.78,6.16-.24,9.25-2.57,9.25-6.99,0-2.29-1.05-4.03-3.14-5.22-2.1-1.19-5.35-2.37-9.78-3.56-4.58-1.26-8.32-2.53-11.2-3.79-2.89-1.26-5.38-3.18-7.47-5.75-2.09-2.57-3.14-6.02-3.14-10.37,0-3.79,1.09-7.09,3.26-9.9,2.17-2.8,5.02-4.98,8.54-6.52,3.52-1.54,7.25-2.31,11.2-2.31s8.06.75,12.09,2.25c4.03,1.5,7.19,3.72,9.48,6.64,1.03,1.27,1.54,2.69,1.54,4.27,0,1.82-.75,3.32-2.25,4.51-1.11.87-2.37,1.3-3.79,1.3-1.74,0-3.16-.55-4.27-1.66-1.42-1.74-3.26-3.12-5.51-4.15-2.25-1.03-4.8-1.54-7.65-1.54-6.01,0-9.01,2.17-9.01,6.52,0,1.74.55,3.14,1.66,4.21,1.11,1.07,2.51,1.9,4.21,2.49,1.7.59,4.09,1.32,7.17,2.19,4.27,1.19,7.82,2.41,10.67,3.67,2.84,1.27,5.25,3.2,7.23,5.81,1.97,2.61,2.96,6.05,2.96,10.31,0,3.87-1.15,7.25-3.44,10.14-2.29,2.89-5.24,5.08-8.83,6.58-3.6,1.5-7.29,2.25-11.08,2.25-5.22,0-10.08-.87-14.58-2.61-4.51-1.74-8.18-4.54-11.02-8.42-.71-.95-1.07-2.13-1.07-3.56Z"/>
        <path class="st2" d="M133.68,56.05c0-2.05,1.03-3.79,3.08-5.22,1.11-.71,2.25-1.07,3.44-1.07,1.66,0,3.24.75,4.74,2.25,2.37,2.45,4.84,4.27,7.41,5.45,2.57,1.19,5.67,1.78,9.31,1.78,6.16-.24,9.25-2.57,9.25-6.99,0-2.29-1.05-4.03-3.14-5.22-2.1-1.19-5.35-2.37-9.78-3.56-4.58-1.26-8.32-2.53-11.2-3.79-2.89-1.26-5.38-3.18-7.47-5.75-2.09-2.57-3.14-6.02-3.14-10.37,0-3.79,1.09-7.09,3.26-9.9,2.17-2.8,5.02-4.98,8.54-6.52,3.52-1.54,7.25-2.31,11.2-2.31s8.06.75,12.09,2.25c4.03,1.5,7.19,3.72,9.48,6.64,1.03,1.27,1.54,2.69,1.54,4.27,0,1.82-.75,3.32-2.25,4.51-1.11.87-2.37,1.3-3.79,1.3-1.74,0-3.16-.55-4.27-1.66-1.42-1.74-3.26-3.12-5.51-4.15-2.25-1.03-4.8-1.54-7.65-1.54-6.01,0-9.01,2.17-9.01,6.52,0,1.74.55,3.14,1.66,4.21,1.11,1.07,2.51,1.9,4.21,2.49,1.7.59,4.09,1.32,7.17,2.19,4.27,1.19,7.82,2.41,10.67,3.67,2.84,1.27,5.25,3.2,7.23,5.81,1.97,2.61,2.96,6.05,2.96,10.31,0,3.87-1.15,7.25-3.44,10.14-2.29,2.89-5.24,5.08-8.83,6.58-3.6,1.5-7.29,2.25-11.08,2.25-5.22,0-10.08-.87-14.58-2.61-4.51-1.74-8.18-4.54-11.02-8.42-.71-.95-1.07-2.13-1.07-3.56Z"/>
      </g>
      <g>
        <path class="st1" d="M59.98,6.85c1.34,1.34,2.01,3.08,2.01,5.22v50.14c0,2.06-.67,3.77-2.01,5.16-1.34,1.38-3.04,2.07-5.1,2.07s-3.73-.67-5.04-2.02c-1.3-1.34-2-3.04-2.08-5.1-1.98,2.29-4.64,4.25-8,5.87-3.36,1.62-6.9,2.43-10.61,2.43-5.45,0-10.39-1.4-14.82-4.21-4.43-2.8-7.92-6.7-10.49-11.68-2.57-4.98-3.85-10.63-3.85-16.95s1.26-11.99,3.79-17.01c2.53-5.02,5.99-8.93,10.37-11.74,4.39-2.8,9.23-4.21,14.52-4.21,3.79,0,7.35.69,10.67,2.08,3.32,1.38,6.12,3.14,8.42,5.27v-.12c0-2.05.67-3.77,2.02-5.16,1.34-1.38,3.04-2.08,5.1-2.08s3.75.67,5.1,2.02ZM43.51,51.96c3.24-3.75,4.86-8.48,4.86-14.17s-1.62-10.43-4.86-14.23c-3.24-3.79-7.43-5.69-12.57-5.69s-9.21,1.9-12.45,5.69c-3.24,3.79-4.86,8.54-4.86,14.23s1.6,10.41,4.8,14.17c3.2,3.75,7.37,5.63,12.51,5.63s9.32-1.88,12.57-5.63Z"/>
        <path class="st1" d="M99.73,7.98c4.11,2.09,6.16,4.88,6.16,8.36,0,1.74-.52,3.26-1.54,4.56-1.03,1.3-2.37,1.96-4.03,1.96-1.27,0-2.29-.18-3.08-.53-.79-.36-1.56-.83-2.31-1.42-.75-.59-1.48-1.09-2.19-1.48-.79-.39-1.95-.75-3.5-1.07-1.54-.32-2.79-.47-3.73-.47-5.93,0-10.57,1.84-13.93,5.51s-5.04,8.48-5.04,14.4,1.7,10.41,5.1,14.17c3.4,3.75,7.74,5.63,13.04,5.63,3.87,0,6.76-.47,8.65-1.42.47-.24,1.12-.65,1.95-1.24.83-.59,1.6-1.05,2.31-1.36.71-.31,1.58-.47,2.61-.47,1.98,0,3.54.63,4.68,1.9,1.14,1.26,1.72,2.89,1.72,4.86s-1.11,3.67-3.32,5.33c-2.21,1.66-5.14,2.98-8.77,3.97-3.63.99-7.51,1.48-11.62,1.48-6.09,0-11.44-1.42-16.06-4.27s-8.2-6.78-10.73-11.79c-2.53-5.02-3.79-10.61-3.79-16.77s1.32-12.09,3.97-17.07c2.65-4.98,6.34-8.87,11.08-11.68,4.74-2.8,10.12-4.21,16.12-4.21,6.72,0,12.13,1.05,16.24,3.14Z"/>
      </g>
    </g>
    <rect class="st0" x="226.37" y="16.82" width="7.29" height="30.04" transform="translate(460.03 63.67) rotate(-180)"/>
    <g id="PSL">
      <path id="Blason" class="st3" d="M300.87,0h-53.94v47.78c0,15.27,12.42,27.69,27.69,27.69s27.69-12.42,27.69-27.69V0h-1.43ZM300.87,47.78c0,14.48-11.78,26.25-26.25,26.25s-26.25-11.78-26.25-26.25V1.43h52.51v46.35Z"/>
      <path id="Monogramme_PSL" class="st3" d="M281.87,36.78c-1.25-.78-3.33-2.09-4.83-3.02v-3.53h4.77c4.27,0,7.57-3.57,7.57-7.97s-3.3-7.97-7.57-7.97h-15.12v.28s2.57,1.28,2.57,5.79h0c-.71,0-2.64-.1-4.96,1.05-1.24.61-2.33,1.55-3.14,2.78-.05.08-.1.15-.15.23-2.3,3.78-1.15,8.55,2.68,11.02,3.5,2.26,13.51,8.26,15.48,9.44h0c1.37.81,2.22,1.96,2.22,3.22,0,1.84-1.8,3.42-4.37,4.1v-6.56l-7.77-4.7v11.28c-2.6-.68-4.37-2.27-4.42-4.12-.06-2.15,1.53-3.89,3.06-5.06l-6.09-3.74c-1.25,1.37-1.97,2.98-1.97,4.7,0,4.05,3.97,7.47,9.42,8.58,0,4.29-2.57,5.54-2.57,5.54v.28s21.57,0,21.57,0l.92-5.56h-.28c-2.65,3.11-6.86,4.76-11.87,5.14v-5.41c5.43-1.12,9.29-4.54,9.37-8.57.07-3.45-2.25-5.8-4.54-7.23ZM277.04,14.67c3.74.02,5.31,3.36,5.31,7.59s-1.58,7.57-5.31,7.59v-15.18ZM269.27,20.74v8.33c-1.52-.91-2.53-1.51-2.53-1.51-1.74-1.06-2.3-3.31-1.24-5.05.7-1.15,1.92-1.77,3.77-1.77h0Z"/>
      <g id="Paris_Sciences__x26__Lettres">
        <path id="S" class="st3" d="M386.05,54.33c-.14-.33-.34-.62-.6-.87s-.59-.47-.97-.65c-.39-.18-.83-.33-1.34-.44l-.88-.2c-.23-.05-.44-.11-.62-.17s-.34-.14-.47-.23-.23-.19-.3-.31c-.07-.12-.1-.25-.09-.4,0-.19.06-.35.16-.49.11-.14.27-.26.48-.34.21-.08.48-.12.79-.12.48,0,.85.1,1.11.31.26.2.41.49.44.85h2.36c0-.63-.17-1.19-.49-1.67-.32-.48-.77-.86-1.35-1.12-.58-.27-1.27-.4-2.06-.4s-1.46.13-2.06.4c-.6.26-1.08.63-1.42,1.11-.34.47-.51,1.03-.51,1.66,0,.77.25,1.38.75,1.84.51.45,1.2.78,2.08.98l1.06.25c.37.09.68.18.92.28s.42.22.54.36c.12.14.18.3.18.5,0,.21-.07.39-.2.55-.12.16-.3.28-.54.37-.23.09-.52.13-.85.13-.36,0-.68-.05-.95-.17s-.49-.28-.64-.5-.24-.49-.26-.82h-2.36c0,.8.19,1.45.54,1.97.35.52.84.91,1.48,1.16.63.26,1.38.38,2.23.38s1.57-.12,2.18-.37c.6-.24,1.06-.6,1.38-1.06s.48-1.01.49-1.66c0-.41-.07-.78-.21-1.1Z"/>
        <polygon id="E" class="st3" points="369.97 58.39 377.07 58.39 377.07 56.39 372.43 56.39 372.43 54.3 376.71 54.3 376.71 52.3 372.43 52.3 372.43 50.21 377.07 50.21 377.07 48.21 369.97 48.21 369.97 58.39"/>
        <path id="R" class="st3" d="M368.51,53.4c.31-.49.46-1.09.46-1.8s-.15-1.3-.45-1.81c-.3-.51-.73-.9-1.29-1.17-.56-.27-1.21-.41-1.98-.41h-4.21v10.18h2.46v-3.48h1.26l1.86,3.48h2.68l-2.11-3.88c.56-.26,1-.63,1.3-1.12ZM363.51,50.19h1.21c.37,0,.68.05.93.16s.44.26.57.47.19.47.19.78-.06.57-.19.77-.32.35-.57.45-.56.15-.93.15h-1.21v-2.77Z"/>
        <polygon id="T" class="st3" points="351.59 50.21 354.68 50.21 354.68 58.39 357.11 58.39 357.11 50.21 360.19 50.21 360.19 48.21 351.59 48.21 351.59 50.21"/>
        <polygon id="T1" data-name="T" class="st3" points="342.46 50.21 345.55 50.21 345.55 58.39 347.97 58.39 347.97 50.21 351.06 50.21 351.06 48.21 342.46 48.21 342.46 50.21"/>
        <polygon id="E1" data-name="E" class="st3" points="334.5 58.39 341.6 58.39 341.6 56.39 336.96 56.39 336.96 54.3 341.24 54.3 341.24 52.3 336.96 52.3 336.96 50.21 341.6 50.21 341.6 48.21 334.5 48.21 334.5 58.39"/>
        <polygon id="L" class="st3" points="329.34 48.21 326.88 48.21 326.88 58.39 333.58 58.39 333.58 56.39 329.34 56.39 329.34 48.21"/>
        <path id="_x26_" class="st3" d="M322.37,56.35c.26-.41.45-.88.58-1.4.13-.52.2-1.09.2-1.7h-1.96c0,.49-.09.95-.26,1.36-.06.13-.16.23-.22.35l-1.46-1.64.54-.39c.43-.31.77-.66,1-1.06.24-.4.35-.84.35-1.31,0-.45-.11-.87-.33-1.24-.22-.38-.53-.68-.94-.91-.4-.23-.88-.34-1.44-.34s-1.08.12-1.51.37-.77.57-1.01.98c-.24.41-.36.87-.36,1.38,0,.45.09.87.26,1.25.17.38.39.73.64,1.05-.36.24-.67.49-.94.74s-.49.53-.64.83c-.15.3-.23.64-.23,1.04,0,.53.14,1.01.42,1.44.28.43.68.78,1.2,1.03.52.26,1.14.38,1.85.38.44,0,.89-.06,1.35-.18.45-.12.86-.32,1.25-.6l.58.63h2.48l-1.6-1.8c.07-.09.16-.14.22-.24ZM317.68,50.4c.07-.12.17-.22.3-.29.13-.07.28-.11.46-.11.27,0,.48.07.62.22.14.15.21.31.21.5,0,.17-.05.34-.15.51-.1.17-.27.33-.52.48l-.47.3c-.15-.2-.29-.39-.39-.56-.12-.21-.17-.42-.17-.62,0-.16.04-.29.11-.42ZM319.29,56.37c-.34.16-.69.25-1.03.25-.26,0-.48-.05-.68-.14-.19-.09-.34-.22-.45-.38s-.16-.35-.16-.57.06-.41.19-.59c.12-.17.29-.32.49-.47l1.71,1.86s-.05.04-.08.06Z"/>
        <path id="S1" data-name="S" class="st3" d="M382.37,41.35c.6-.25,1.06-.6,1.38-1.06.32-.46.48-1.01.49-1.66,0-.41-.07-.78-.21-1.1s-.34-.62-.6-.87-.59-.47-.97-.65c-.38-.18-.83-.33-1.33-.44l-.88-.2c-.23-.05-.44-.11-.63-.17s-.34-.14-.47-.23c-.13-.09-.23-.19-.3-.31-.07-.12-.1-.25-.09-.4,0-.19.06-.35.16-.5.11-.14.27-.26.48-.34.21-.08.48-.12.79-.12.48,0,.85.1,1.11.31.26.2.41.49.44.85h2.36c0-.63-.17-1.19-.49-1.67-.32-.48-.77-.85-1.36-1.12s-1.27-.4-2.06-.4-1.46.13-2.06.4c-.6.26-1.08.63-1.42,1.11-.34.47-.51,1.03-.51,1.66,0,.77.25,1.38.76,1.84s1.2.78,2.08.98l1.06.25c.37.09.68.18.92.28.24.1.42.22.53.36.12.14.18.3.18.5,0,.21-.07.39-.19.55-.13.16-.31.28-.54.37-.23.09-.52.13-.85.13-.36,0-.68-.06-.95-.17-.27-.11-.49-.28-.64-.5-.16-.22-.24-.49-.26-.82h-2.36c0,.8.19,1.45.54,1.97.35.52.84.91,1.48,1.16.63.26,1.38.38,2.23.38s1.57-.12,2.18-.37Z"/>
        <polygon id="E2" data-name="E" class="st3" points="374.8 39.59 370.16 39.59 370.16 37.5 374.43 37.5 374.43 35.5 370.16 35.5 370.16 33.41 374.8 33.41 374.8 31.41 367.7 31.41 367.7 41.59 374.8 41.59 374.8 39.59"/>
        <path id="C" class="st3" d="M359.39,41.12c.73.41,1.55.61,2.47.61.7,0,1.32-.11,1.86-.32.54-.21,1-.5,1.38-.86.38-.36.68-.76.89-1.2s.35-.88.39-1.33h-2.49c-.04.23-.12.45-.23.64-.11.19-.25.36-.42.49-.17.13-.37.24-.59.31-.22.07-.47.1-.74.1-.48,0-.9-.12-1.26-.35s-.63-.57-.82-1.03c-.19-.46-.29-1.02-.29-1.7s.1-1.2.29-1.66c.19-.46.46-.81.82-1.05.36-.24.78-.36,1.28-.36.28,0,.53.04.76.12.23.08.43.19.6.34s.3.32.41.53c.1.21.17.44.2.69h2.49c-.06-.61-.21-1.15-.46-1.62-.25-.47-.57-.88-.97-1.2-.4-.33-.86-.58-1.38-.75-.52-.17-1.09-.26-1.71-.26-.9,0-1.72.2-2.45.61-.73.4-1.31,1-1.74,1.78-.43.78-.64,1.73-.64,2.85s.21,2.06.63,2.84c.42.78,1,1.37,1.72,1.78Z"/>
        <polygon id="N" class="st3" points="349.5 35.71 349.57 35.71 353.62 41.59 355.71 41.59 355.71 31.41 353.25 31.41 353.25 37.28 353.17 37.28 349.16 31.41 347.04 31.41 347.04 41.59 349.5 41.59 349.5 35.71"/>
        <polygon id="E3" data-name="E" class="st3" points="345.6 33.41 345.6 31.41 338.5 31.41 338.5 41.59 345.6 41.59 345.6 39.59 340.96 39.59 340.96 37.5 345.23 37.5 345.23 35.5 340.96 35.5 340.96 33.41 345.6 33.41"/>
        <rect id="I" class="st3" x="334.6" y="31.41" width="2.46" height="10.18"/>
        <path id="C1" data-name="C" class="st3" d="M330.63,41.41c.54-.21,1-.5,1.38-.86.38-.36.67-.76.89-1.2.22-.44.35-.88.39-1.33h-2.48c-.04.23-.12.45-.23.64-.11.19-.25.36-.42.49-.17.13-.37.24-.59.31-.22.07-.47.1-.74.1-.48,0-.9-.12-1.25-.35-.35-.23-.63-.57-.82-1.03-.2-.46-.29-1.02-.29-1.7s.1-1.2.29-1.66c.19-.46.46-.81.82-1.05.36-.24.78-.36,1.28-.36.28,0,.53.04.76.12.23.08.43.19.6.34.17.15.31.32.41.53.1.21.17.44.21.69h2.48c-.06-.61-.21-1.15-.46-1.62-.25-.47-.57-.88-.97-1.2-.4-.33-.86-.58-1.38-.75-.53-.17-1.09-.26-1.71-.26-.9,0-1.72.2-2.45.61s-1.31,1-1.73,1.78c-.43.78-.64,1.73-.64,2.85s.21,2.06.63,2.84c.42.78.99,1.37,1.72,1.78.73.41,1.55.61,2.47.61.7,0,1.32-.11,1.86-.32Z"/>
        <path id="S2" data-name="S" class="st3" d="M319.67,39.55c-.23.09-.52.13-.85.13-.36,0-.68-.06-.95-.17-.27-.11-.49-.28-.64-.5s-.24-.49-.26-.82h-2.36c0,.8.19,1.45.54,1.97.35.52.84.91,1.48,1.16s1.38.38,2.23.38,1.57-.12,2.18-.37c.6-.25,1.06-.6,1.38-1.06.32-.46.48-1.01.49-1.66,0-.41-.07-.78-.21-1.1-.14-.33-.34-.62-.6-.87s-.59-.47-.97-.65-.83-.33-1.34-.44l-.88-.2c-.23-.05-.44-.11-.62-.17s-.34-.14-.47-.23c-.13-.09-.23-.19-.3-.31-.07-.12-.1-.25-.09-.4,0-.19.06-.35.16-.5.11-.14.27-.26.48-.34.21-.08.48-.12.79-.12.48,0,.85.1,1.11.31.26.2.41.49.44.85h2.36c0-.63-.17-1.19-.49-1.67-.32-.48-.77-.85-1.35-1.12-.58-.27-1.27-.4-2.06-.4s-1.46.13-2.06.4c-.6.26-1.08.63-1.42,1.11s-.51,1.03-.51,1.66c0,.77.25,1.38.75,1.84.51.45,1.2.78,2.08.98l1.06.25c.37.09.68.18.92.28.24.1.42.22.54.36.12.14.18.3.18.5,0,.21-.07.39-.2.55-.12.16-.3.28-.54.37Z"/>
        <path id="S3" data-name="S" class="st3" d="M352.57,22.73c-.24.09-.52.14-.86.14-.37,0-.69-.06-.96-.17-.28-.11-.49-.28-.65-.5s-.25-.5-.27-.83h-2.39c0,.81.19,1.47.55,2s.85.92,1.5,1.18c.64.26,1.39.39,2.25.39s1.59-.12,2.2-.37,1.08-.61,1.4-1.07c.33-.47.49-1.03.49-1.68,0-.41-.07-.79-.21-1.12-.14-.33-.34-.63-.61-.88s-.6-.47-.99-.66-.84-.33-1.35-.44l-.89-.2c-.23-.05-.44-.11-.63-.18s-.35-.15-.48-.23c-.13-.09-.23-.19-.3-.31-.07-.12-.1-.25-.09-.41,0-.19.06-.36.17-.5.11-.15.27-.26.48-.34.22-.08.48-.13.8-.13.49,0,.86.1,1.13.31.27.21.41.49.45.86h2.39c0-.64-.17-1.21-.5-1.69-.32-.49-.78-.87-1.37-1.14-.59-.27-1.28-.41-2.08-.41s-1.48.13-2.09.4c-.61.27-1.09.64-1.44,1.12s-.52,1.04-.51,1.68c0,.78.25,1.4.76,1.86.51.46,1.22.79,2.11.99l1.08.25c.38.09.68.18.93.28.24.1.43.22.54.36.12.14.18.31.18.5,0,.21-.07.39-.2.55-.13.16-.31.29-.55.38Z"/>
        <rect id="I1" data-name="I" class="st3" x="343.56" y="14.29" width="2.49" height="10.5"/>
        <path id="R1" data-name="R" class="st3" d="M336.32,21.2h1.28l1.88,3.59h2.72l-2.14-4c.57-.26,1.01-.65,1.32-1.15.31-.51.47-1.13.47-1.85s-.15-1.34-.46-1.86-.74-.93-1.3-1.21-1.23-.42-2-.42h-4.26v10.5h2.49v-3.59ZM337.55,16.34c.37,0,.69.05.94.16.26.11.45.27.58.48.13.21.2.48.2.81s-.07.59-.2.8c-.13.21-.32.36-.58.46s-.57.15-.94.15h-1.23v-2.86h1.23Z"/>
        <path id="A" class="st3" d="M325.95,22.59h3.56l.68,2.2h2.68l-3.48-10.5h-3.32l-3.48,10.5h2.68l.68-2.2ZM327.77,16.94l1.15,3.72h-2.37l1.15-3.72h.08Z"/>
        <path id="P" class="st3" d="M317.07,21.53h1.69c.79,0,1.47-.15,2.04-.45.57-.3,1.01-.72,1.33-1.26.31-.54.47-1.17.47-1.9s-.15-1.35-.46-1.9-.74-.97-1.3-1.28c-.56-.31-1.23-.46-2-.46h-4.26v10.5h2.49v-3.26ZM318.3,16.34c.37,0,.69.07.94.2s.45.31.58.55c.13.24.2.52.2.84s-.07.6-.2.84c-.13.24-.32.43-.58.56-.25.13-.57.2-.94.2h-1.23v-3.19h1.23Z"/>
      </g>
    </g>
  </g>
</svg>