<?xml version="1.0" standalone="no"?>
<!DOCTYPE svg PUBLIC "-//W3C//DTD SVG 20010904//EN"
 "http://www.w3.org/TR/2001/REC-SVG-20010904/DTD/svg10.dtd">
<svg version="1.0" xmlns="http://www.w3.org/2000/svg"
 width="700.000000pt" height="700.000000pt" viewBox="0 0 700.000000 700.000000"
 preserveAspectRatio="xMidYMid meet">
<metadata>
Created by potrace 1.14, written by Peter Selinger 2001-2017
</metadata>
<g transform="translate(0.000000,700.000000) scale(0.100000,-0.100000)"
fill="#000000" stroke="none">
<path d="M985 4879 c-70 -14 -140 -31 -150 -38 -5 -3 -12 -6 -15 -6 -3 0 -27
-9 -55 -19 -113 -44 -298 -173 -362 -253 -15 -19 -43 -51 -60 -71 -18 -21 -33
-42 -33 -49 0 -6 -4 -13 -8 -15 -25 -10 -118 -194 -150 -298 -57 -181 -71
-280 -66 -489 3 -195 1 -172 26 -291 50 -237 156 -437 318 -601 192 -194 426
-296 695 -303 101 -3 207 8 280 27 31 9 90 31 113 43 15 8 30 14 34 14 3 0 39
19 80 42 79 45 132 85 180 136 17 17 34 32 38 32 4 0 11 -17 15 -37 36 -201
276 -286 428 -153 51 45 74 85 83 142 4 21 9 38 13 38 3 0 34 -22 68 -50 66
-53 96 -72 186 -120 77 -41 234 -93 263 -87 13 2 21 0 18 -4 -3 -5 1 -9 8 -9
7 -1 40 -4 73 -8 78 -8 285 -8 355 1 120 16 138 19 229 43 97 25 125 36 227
86 l62 29 58 -29 c126 -63 298 -112 463 -130 78 -9 298 -8 341 2 14 3 39 8 55
12 143 29 313 110 413 196 l33 28 72 -48 c101 -68 216 -119 332 -148 17 -4 35
-8 40 -10 100 -27 213 -38 365 -37 122 0 162 6 291 37 35 9 105 35 134 50 17
9 34 16 38 16 5 0 39 19 75 43 154 100 259 229 303 372 42 137 26 363 -36 485
-64 127 -222 270 -335 305 -3 1 -23 9 -45 18 -43 19 -209 77 -238 82 -9 2 -21
6 -25 9 -5 3 -19 7 -33 10 -13 3 -54 14 -91 25 -38 12 -98 30 -134 41 -90 26
-189 74 -225 107 -28 26 -60 75 -65 98 -16 82 -6 151 30 205 27 41 106 87 168
97 53 9 197 10 258 1 119 -16 249 -85 345 -183 52 -54 105 -77 174 -78 165 -1
271 165 202 316 -13 29 -53 79 -97 122 -78 78 -83 81 -190 134 -38 19 -77 38
-87 43 -20 10 -122 41 -172 53 -109 25 -177 33 -290 33 -96 0 -141 -5 -275
-33 -31 -7 -71 -21 -130 -47 -90 -40 -110 -50 -106 -57 3 -4 -4 -7 -14 -8 -22
-2 -85 -49 -142 -105 l-37 -38 -33 31 c-54 50 -156 120 -177 122 -11 1 -18 3
-16 6 8 7 -134 66 -185 76 -8 2 -15 4 -15 5 0 4 -36 12 -130 29 -74 14 -136
18 -235 16 -162 -4 -188 -8 -305 -47 -105 -35 -171 -67 -238 -114 l-48 -34
-33 25 c-18 14 -36 25 -39 25 -3 0 -23 11 -43 25 -20 14 -45 25 -55 25 -9 0
-19 4 -21 10 -4 11 -154 54 -233 66 -16 3 -43 8 -60 10 -16 3 -111 7 -210 8
-144 3 -198 0 -271 -15 -135 -27 -298 -85 -316 -113 -4 -6 -8 -8 -8 -4 0 17
-164 -94 -214 -145 -22 -22 -27 -18 -31 25 -11 154 -103 249 -248 254 -86 3
-144 -16 -196 -67 -47 -47 -70 -90 -79 -152 l-7 -45 -70 53 c-127 97 -298 171
-460 200 -85 15 -273 17 -340 4z m3702 -432 c11 -1 19 -5 16 -9 -2 -5 5 -8 15
-8 41 0 180 -81 248 -144 70 -64 107 -88 157 -100 24 -6 27 -11 28 -49 0 -23
2 -49 4 -57 1 -8 6 -32 9 -54 3 -21 9 -43 13 -50 4 -6 8 -16 9 -22 6 -39 68
-137 124 -194 77 -79 138 -121 228 -161 37 -17 76 -34 87 -39 24 -11 200 -70
223 -75 9 -2 64 -18 122 -35 58 -18 116 -34 130 -37 14 -3 30 -9 35 -13 6 -4
24 -10 40 -14 48 -12 173 -77 201 -105 47 -47 63 -91 60 -167 -4 -109 -52
-176 -152 -214 -87 -32 -228 -43 -329 -25 -22 4 -49 8 -60 9 -110 13 -285 115
-407 239 -37 36 -48 56 -49 80 -2 84 -28 183 -68 262 -36 69 -151 198 -204
227 -95 52 -127 68 -127 62 0 -4 -6 -1 -14 5 -15 13 -216 86 -291 106 -27 7
-103 29 -167 49 -65 20 -123 36 -129 36 -5 0 -43 16 -82 35 -118 58 -164 113
-174 209 -13 129 56 218 197 252 37 8 221 9 307 1z m-3322 -55 c28 -6 62 -15
76 -21 15 -5 30 -7 33 -4 3 4 6 1 6 -5 0 -7 6 -12 13 -12 17 0 114 -66 157
-107 19 -18 38 -33 43 -33 4 0 7 -6 7 -14 0 -7 7 -19 15 -26 21 -18 82 -123
107 -185 39 -95 56 -206 53 -343 -2 -70 -6 -138 -9 -152 -3 -14 -8 -34 -10
-45 -7 -33 -46 -137 -64 -170 -9 -16 -15 -33 -14 -37 1 -5 -2 -8 -7 -8 -5 0
-12 -9 -16 -19 -11 -37 -159 -176 -220 -207 -108 -56 -180 -74 -300 -74 -190
0 -327 55 -443 179 -24 25 -48 45 -54 43 -5 -1 -7 2 -3 8 3 5 -5 25 -18 42
-154 205 -174 593 -45 851 30 59 99 151 143 190 52 47 71 61 114 87 66 38 117
55 201 66 25 4 46 7 47 8 7 6 146 -4 188 -12z m1985 4 c138 -22 163 -32 313
-137 5 -4 11 -40 13 -80 6 -159 32 -254 93 -342 35 -51 157 -169 197 -189 16
-8 43 -22 59 -31 76 -42 319 -127 510 -178 175 -48 323 -113 373 -165 79 -82
74 -244 -10 -321 -124 -114 -435 -117 -653 -5 -87 44 -126 73 -226 167 -71 67
-114 92 -172 99 -71 10 -147 -22 -210 -86 -21 -21 -56 -96 -57 -119 0 -24 -97
-61 -190 -73 -51 -7 -205 -8 -265 -2 -64 6 -193 54 -249 91 -93 62 -166 141
-220 237 -67 120 -99 246 -99 393 -1 175 27 293 98 422 49 90 115 161 198 215
26 17 47 34 47 38 0 4 6 7 13 7 6 0 46 12 87 26 41 14 98 29 125 32 28 4 51 8
52 9 5 4 132 -1 173 -8z"/>
</g>
</svg>
